<?xml version="1.0" standalone="no"?>
<!DOCTYPE svg PUBLIC "-//W3C//DTD SVG 20010904//EN"
 "http://www.w3.org/TR/2001/REC-SVG-20010904/DTD/svg10.dtd">
<svg version="1.0" xmlns="http://www.w3.org/2000/svg"
 width="512.000000pt" height="512.000000pt" viewBox="0 0 512.000000 512.000000"
 preserveAspectRatio="xMidYMid meet">
<metadata>
Created by potrace 1.14, written by Peter Selinger 2001-2017
</metadata>
<g transform="translate(0.000000,512.000000) scale(0.100000,-0.100000)"
fill="#000000" stroke="none">
<path d="M3672 4420 c-116 -31 -206 -83 -298 -175 -91 -90 -140 -175 -169
-293 -9 -40 -20 -72 -24 -72 -3 1 -22 21 -41 46 -98 127 -315 296 -471 368
-342 155 -728 152 -1064 -9 -384 -184 -659 -537 -751 -965 -9 -41 -18 -146
-21 -233 -6 -157 -6 -159 -32 -175 -88 -56 -131 -96 -147 -137 -9 -24 -14 -58
-12 -75 5 -35 1 -36 -87 -18 -56 11 -59 10 -77 -12 -36 -44 0 -119 101 -213
50 -47 159 -107 194 -107 9 0 17 -2 17 -5 0 -3 -23 -34 -52 -68 -105 -126
-144 -270 -100 -370 28 -64 94 -132 161 -164 51 -26 66 -28 171 -28 108 0 119
2 180 31 65 31 117 73 158 129 20 27 23 28 32 13 27 -45 69 -83 115 -104 97
-46 306 -27 395 36 23 16 31 16 100 4 92 -16 326 -18 421 -3 l70 11 42 -42
c147 -147 399 -158 546 -24 51 45 71 82 86 153 l11 54 32 -49 c74 -116 166
-171 304 -181 139 -9 244 28 325 116 44 48 56 90 51 171 -9 127 -125 291 -270
384 -32 20 -58 40 -58 44 0 4 26 23 58 42 74 44 195 166 256 258 70 106 153
269 207 407 47 118 48 120 96 145 115 61 217 156 282 265 197 328 7 745 -385
845 -102 26 -252 26 -352 0z m345 -56 c236 -60 402 -261 405 -489 2 -80 -14
-104 -92 -149 -50 -28 -62 -31 -145 -31 -97 1 -145 17 -165 56 -8 14 -19 19
-38 17 -21 -2 -28 -9 -30 -31 -4 -35 15 -58 68 -82 39 -18 40 -19 40 -72 0
-29 6 -69 14 -88 14 -32 13 -34 -10 -50 -25 -16 -108 -47 -230 -85 -88 -27
-134 -65 -134 -111 0 -43 38 -90 90 -114 42 -19 42 -19 36 -63 -3 -24 -24 -74
-46 -112 -113 -193 -305 -347 -505 -406 -80 -23 -227 -16 -275 12 -43 25 -47
46 -20 120 11 33 21 63 23 68 1 5 -10 16 -25 23 -16 8 -28 18 -28 23 0 18 55
72 110 110 74 50 130 121 186 235 75 152 80 280 18 485 -23 76 -23 245 0 330
34 123 127 248 247 328 137 92 331 121 506 76z m-1686 -30 c192 -33 375 -110
524 -222 77 -57 147 -122 132 -122 -19 0 -84 33 -128 65 -27 19 -67 39 -90 44
-22 5 -58 21 -79 36 -21 14 -60 32 -86 40 -27 7 -78 26 -113 40 -135 57 -449
72 -598 30 -28 -8 -64 -15 -81 -15 -16 0 -35 -7 -43 -16 -23 -28 -96 -56 -126
-50 -23 5 -34 1 -58 -25 -17 -17 -49 -39 -72 -50 -23 -10 -50 -30 -60 -46 -22
-36 -32 -43 -61 -43 -26 0 -46 -20 -96 -95 -19 -27 -60 -84 -92 -127 -72 -94
-133 -204 -155 -280 -9 -31 -23 -67 -31 -80 -22 -33 -54 -149 -72 -258 -12
-70 -14 -125 -9 -219 4 -91 3 -122 -5 -117 -21 13 -33 80 -39 212 -14 316 99
627 321 885 183 213 446 363 725 413 105 19 279 19 392 0z m-4 -314 c94 -22
239 -76 249 -92 4 -6 -27 -44 -68 -85 l-75 -75 -108 27 c-101 26 -119 27 -269
23 -136 -5 -174 -9 -249 -32 -153 -46 -285 -121 -429 -243 -49 -41 -88 -71
-88 -67 0 19 68 138 116 200 133 175 297 285 505 339 124 32 296 34 416 5z
m363 -70 c16 0 19 -32 5 -65 -8 -21 -183 -208 -447 -477 -794 -811 -828 -845
-875 -859 -23 -6 -50 -8 -60 -5 -16 7 -14 10 12 24 30 17 141 130 535 542 113
118 336 347 495 508 200 202 291 301 293 319 3 17 8 23 19 19 8 -3 18 -6 23
-6z m-405 -202 c90 -16 92 -19 55 -61 -20 -24 -37 -34 -48 -31 -12 4 -13 3 -5
-3 9 -6 -12 -33 -75 -95 l-87 -86 -90 -5 c-49 -4 -131 -17 -181 -31 l-92 -25
-107 54 c-59 29 -125 57 -146 60 -22 4 -39 11 -39 16 0 16 94 79 185 124 188
92 420 122 630 83z m2107 -95 c-15 -33 -17 -34 -20 -13 -3 15 3 29 14 37 25
18 26 17 6 -24z m-1455 -86 c57 -86 105 -224 101 -285 l-3 -46 -56 75 c-32 42
-96 111 -143 154 -47 43 -86 85 -86 92 0 8 23 36 52 64 50 48 52 49 71 32 11
-10 40 -48 64 -86z m1234 53 c14 0 20 -10 25 -40 9 -55 28 -69 49 -36 10 15
15 37 13 51 -5 24 7 35 38 35 20 0 18 -67 -4 -110 -23 -46 -62 -68 -98 -55
-35 13 -60 56 -69 119 -6 43 -5 48 10 42 9 -3 25 -6 36 -6z m-2578 -202 c59
-28 107 -54 107 -56 0 -3 -15 -25 -33 -51 -87 -121 -147 -260 -177 -408 -27
-134 -21 -126 -77 -101 -133 58 -176 121 -194 283 -11 107 -6 172 18 220 9 16
48 63 87 103 l71 74 45 -7 c25 -3 93 -29 153 -57z m1230 -18 c69 -73 137 -166
137 -187 0 -19 -40 -16 -64 4 -12 10 -15 11 -8 3 15 -17 16 -30 2 -30 -49 0
-258 -136 -367 -238 l-33 -31 -6 27 c-4 15 -18 54 -31 88 l-24 60 35 40 c142
164 189 213 197 208 5 -3 6 -11 2 -17 -5 -9 -3 -9 8 0 15 12 47 11 72 -3 6 -4
-5 10 -25 31 -21 20 -38 41 -38 46 0 14 52 69 65 69 7 0 42 -31 78 -70z m-869
-107 c-66 -65 -182 -184 -258 -265 -77 -82 -141 -146 -143 -144 -6 5 44 166
69 224 27 63 112 204 135 224 32 29 178 66 302 77 8 0 -39 -52 -105 -116z
m1179 -164 c20 -5 37 -12 37 -15 0 -3 -9 -19 -21 -35 -18 -26 -23 -28 -33 -15
-15 21 -56 10 -56 -15 0 -11 -7 -19 -15 -19 -8 0 -15 -4 -15 -10 0 -17 -65
-21 -120 -7 -37 10 -63 11 -80 5 -35 -13 -147 -98 -129 -98 9 0 19 3 22 7 4 3
38 6 77 6 51 0 75 -4 89 -17 11 -10 25 -14 37 -9 23 9 -59 -99 -141 -186 -51
-54 -100 -91 -119 -91 -8 0 -166 190 -166 199 0 10 132 130 209 190 64 50 138
89 201 107 56 15 173 17 223 3z m-729 -149 c14 -43 26 -88 26 -98 0 -31 -301
-164 -340 -150 -15 5 260 328 280 328 4 0 19 -36 34 -80z m-1545 -179 c9 -42
9 -57 -1 -69 -11 -13 -10 -15 4 -10 10 4 18 1 21 -11 3 -14 -1 -17 -20 -13
-22 4 -24 9 -21 38 4 30 2 33 -16 28 -37 -12 -85 -49 -96 -73 -9 -20 -13 -22
-21 -10 -13 22 -11 58 7 87 18 30 115 102 125 93 4 -3 12 -30 18 -60z m1621
-56 c17 -25 54 -72 81 -105 27 -32 49 -61 49 -64 0 -27 -252 -145 -365 -172
-130 -30 -151 -19 -164 86 -6 41 -13 93 -16 116 l-7 40 94 28 c51 15 134 47
183 71 50 24 95 44 102 44 7 1 26 -19 43 -44z m-1112 -13 l33 -18 -24 -22 -24
-22 -16 40 c-17 45 -15 46 31 22z m-745 -115 c33 -9 56 -24 78 -50 l30 -36
-38 -7 c-30 -6 -46 -2 -83 19 -26 15 -51 23 -55 19 -5 -4 -5 -2 -2 4 3 6 -3
18 -14 27 -10 9 -19 24 -19 33 0 18 6 17 103 -9z m1386 -97 c6 -49 16 -102 22
-117 7 -20 7 -28 -3 -35 -16 -10 -256 -9 -283 1 -18 7 -13 15 45 75 58 61 185
166 201 166 4 0 12 -40 18 -90z m820 -94 c22 -26 -6 -20 -61 14 -27 17 -69 36
-94 42 -24 7 -43 17 -41 23 2 5 28 27 58 48 l54 38 35 -74 c19 -41 41 -82 49
-91z m-1960 133 c-11 -7 -11 -9 2 -9 9 0 22 -7 29 -15 11 -14 10 -14 -14 -5
-69 26 -89 50 -35 42 22 -3 27 -7 18 -13z m15 -98 l39 -17 -36 -22 c-36 -21
-37 -21 -47 -2 -12 22 -13 60 -2 59 4 0 25 -8 46 -18z m2656 -91 c97 -66 193
-184 234 -289 l17 -44 -22 6 c-12 3 -56 1 -97 -6 -58 -9 -82 -18 -101 -38 -14
-14 -34 -28 -44 -32 -22 -8 -35 -39 -19 -45 7 -2 12 -24 12 -54 l0 -51 -42 7
c-52 8 -85 42 -129 132 -48 101 -44 115 71 274 67 92 68 100 19 140 l-42 33
24 13 c27 14 34 11 119 -46z m-788 11 c103 -66 222 -206 285 -336 41 -86 42
-98 7 -85 -33 13 -91 13 -99 0 -4 -6 -11 -8 -16 -4 -28 17 -81 4 -128 -30
l-50 -37 6 -69 c7 -82 3 -85 -77 -43 -67 35 -121 101 -181 223 -85 174 -88
244 -13 308 42 35 172 100 205 101 8 1 36 -12 61 -28z m-1698 -78 c44 -31 84
-69 110 -106 40 -57 41 -61 40 -135 0 -95 -23 -151 -90 -222 -44 -47 -89 -70
-137 -70 -16 0 -18 8 -15 61 l3 61 -47 44 c-33 31 -55 44 -76 44 -20 0 -35 9
-50 30 -19 26 -29 30 -69 30 -45 0 -45 0 -39 30 18 91 143 257 224 299 34 17
36 17 56 0 12 -10 52 -40 90 -66z m1216 -6 c-4 -26 -5 -70 -2 -96 3 -32 0 -51
-8 -56 -21 -13 -275 -6 -350 10 -91 19 -207 73 -245 115 l-30 32 50 -6 c82
-11 215 -13 290 -5 189 22 233 29 265 43 19 8 36 14 36 13 1 -1 -1 -24 -6 -50z
m-1520 -317 c0 -15 -31 -60 -41 -60 -14 0 -41 48 -34 60 8 13 75 13 75 0z
m2941 -27 c28 -74 -1 -121 -66 -109 -38 7 -49 29 -39 73 8 35 22 53 49 63 27
10 45 2 56 -27z m87 15 c-4 -28 -19 -27 -30 1 -6 17 -3 21 13 21 15 0 20 -5
17 -22z m-2914 -60 c16 -15 26 -37 29 -63 l4 -40 -40 -3 c-54 -4 -87 19 -87
60 0 36 24 68 51 68 10 0 29 -10 43 -22z m2172 -2 c15 -12 17 -18 8 -33 -15
-25 -27 -20 -42 16 -14 36 -1 42 34 17z m-101 -10 c14 -10 19 -27 19 -62 l1
-49 -55 -27 c-35 -16 -59 -23 -65 -17 -6 7 -5 13 5 19 10 7 11 10 3 10 -27 0
-9 114 20 132 19 12 51 9 72 -6z"/>
<path d="M3625 4154 c-113 -58 -155 -200 -92 -307 65 -110 192 -137 294 -61
122 91 110 300 -21 364 -51 24 -138 27 -181 4z m196 -83 c38 -38 39 -82 3
-110 -30 -24 -55 -26 -87 -9 -51 27 -63 85 -25 125 30 32 72 30 109 -6z"/>
<path d="M4202 4028 c-7 -7 -12 -21 -12 -33 0 -44 44 -59 75 -25 17 18 17 21
1 45 -18 27 -45 32 -64 13z"/>
<path d="M3575 3668 c-33 -30 -35 -36 -26 -61 25 -65 135 -74 171 -14 17 27
18 34 6 52 -14 22 -46 40 -88 50 -21 5 -34 0 -63 -27z"/>
<path d="M1981 3659 c-105 -13 -213 -42 -199 -52 8 -5 5 -6 -9 -2 -12 3 -33 0
-45 -7 -13 -7 -27 -11 -33 -9 -5 1 -7 -1 -3 -5 9 -8 139 -15 151 -7 5 3 2 12
-7 21 -13 16 -10 17 37 17 35 0 51 4 50 12 -2 6 5 12 15 12 9 0 31 3 47 6 17
3 73 8 125 11 52 3 97 8 99 10 7 7 -161 2 -228 -7z"/>
<path d="M1660 3570 c-9 -6 -10 -10 -3 -10 6 0 15 5 18 10 8 12 4 12 -15 0z"/>
<path d="M1455 3361 c-27 -16 -68 -45 -90 -66 -40 -36 -40 -36 -5 -13 19 13
38 27 41 32 4 5 12 5 18 2 6 -4 11 -4 10 1 -4 20 2 24 18 12 15 -12 16 -12 8
1 -7 13 -6 13 7 2 13 -10 17 -10 23 5 5 10 7 22 6 26 -1 4 4 7 11 6 24 -3 38
1 38 11 0 18 -34 10 -85 -19z"/>
<path d="M1289 3223 l-24 -28 28 24 c25 23 32 31 24 31 -2 0 -14 -12 -28 -27z"/>
<path d="M1239 3163 c-13 -16 -12 -17 4 -4 9 7 17 15 17 17 0 8 -8 3 -21 -13z"/>
<path d="M2760 3316 c0 -3 9 -10 20 -16 11 -6 20 -8 20 -6 0 3 -9 10 -20 16
-11 6 -20 8 -20 6z"/>
<path d="M1876 3294 c-33 -8 -65 -19 -71 -24 -7 -5 -14 -9 -16 -7 -2 1 -1 -2
2 -6 4 -5 28 1 54 12 26 12 58 21 71 21 12 0 26 5 29 10 8 12 5 12 -69 -6z"/>
<path d="M2365 2695 c-44 -20 -110 -45 -147 -57 -75 -24 -89 -39 -30 -33 62 7
107 21 105 33 -2 7 5 12 15 12 10 0 22 3 26 8 4 4 20 7 34 7 16 0 26 5 25 13
-2 6 3 12 10 12 8 0 22 9 32 20 10 11 16 20 14 20 -2 0 -40 -16 -84 -35z"/>
<path d="M896 4257 c-10 -7 -17 -22 -14 -33 3 -18 14 -19 146 -21 79 -1 154 2
168 7 27 11 33 45 8 54 -32 12 -289 7 -308 -7z"/>
<path d="M712 4143 c-28 -6 -39 -28 -22 -48 18 -22 357 -22 386 -1 15 12 17
18 8 33 -10 16 -29 18 -180 19 -93 1 -179 -1 -192 -3z"/>
<path d="M634 3965 c-16 -40 0 -45 140 -45 119 0 136 2 144 18 20 38 6 42
-139 42 -115 0 -141 -3 -145 -15z"/>
<path d="M4147 3190 c-47 -55 -44 -160 6 -195 49 -35 136 0 151 60 10 39 -10
97 -45 133 -41 42 -78 43 -112 2z m101 -102 c-2 -17 -11 -36 -20 -42 -43 -27
-73 43 -47 107 l13 30 28 -32 c21 -24 28 -41 26 -63z"/>
<path d="M4057 2932 c-41 -45 -43 -97 -4 -139 46 -51 127 -10 127 65 0 69 -82
119 -123 74z m73 -73 c0 -34 -29 -47 -47 -23 -17 23 -16 35 3 62 15 22 17 22
30 5 7 -10 14 -30 14 -44z"/>
</g>
</svg>
